<?xml version="1.0" encoding="utf-8"?>
<!-- Generator: Adobe Illustrator 16.0.2, SVG Export Plug-In . SVG Version: 6.00 Build 0)  -->
<!DOCTYPE svg PUBLIC "-//W3C//DTD SVG 1.1//EN" "http://www.w3.org/Graphics/SVG/1.1/DTD/svg11.dtd">
<svg version="1.1" id="Camada_1" xmlns="http://www.w3.org/2000/svg" xmlns:xlink="http://www.w3.org/1999/xlink" x="0px" y="0px"
	 width="250px" height="250px" viewBox="0 0 250 250" enable-background="new 0 0 250 250" xml:space="preserve">
<g>
	<g>
		<path fill="#E8DAD1" d="M239.901,76.456C233.62,61.604,224.63,48.269,213.18,36.82c-11.448-11.449-24.784-20.44-39.635-26.722
			C158.163,3.593,141.83,0.294,125,0.294s-33.163,3.299-48.544,9.804C61.604,16.38,48.269,25.371,36.819,36.82
			C25.371,48.269,16.38,61.604,10.099,76.456C3.593,91.837,0.294,108.17,0.294,125s3.299,33.163,9.804,48.545
			c6.282,14.851,15.272,28.187,26.722,39.635c11.449,11.45,24.784,20.44,39.635,26.722c15.381,6.506,31.714,9.804,48.544,9.804
			c16.83,0,33.163-3.298,48.545-9.804c14.851-6.281,28.186-15.271,39.635-26.722c11.45-11.448,20.44-24.784,26.722-39.635
			c6.506-15.381,9.804-31.714,9.804-48.545C249.705,108.17,246.407,91.837,239.901,76.456z M234.827,171.397
			c-6.004,14.195-14.598,26.942-25.542,37.888c-10.945,10.944-23.692,19.538-37.888,25.542c-14.697,6.217-30.309,9.369-46.397,9.369
			s-31.7-3.152-46.398-9.369c-14.194-6.004-26.941-14.598-37.886-25.542c-10.945-10.945-19.539-23.692-25.542-37.888
			C8.956,156.7,5.804,141.089,5.804,125s3.152-31.699,9.369-46.398c6.003-14.194,14.597-26.941,25.542-37.886
			c10.945-10.945,23.692-19.539,37.886-25.542C93.3,8.957,108.911,5.804,125,5.804s31.7,3.152,46.397,9.369
			c14.195,6.003,26.942,14.597,37.888,25.542c10.944,10.945,19.538,23.692,25.542,37.886c6.217,14.699,9.369,30.309,9.369,46.398
			S241.044,156.7,234.827,171.397z"/>
		<circle fill="#E8DAD1" cx="125" cy="125" r="113.687"/>
	</g>
	<g>
		<path fill="#FE8083" d="M205.248,129.921c-0.098-3.198-0.302-6.396-0.614-9.582c-0.313-3.188-0.739-6.364-1.284-9.52
			c-0.541-3.13-1.193-6.24-1.997-9.314c-0.784-3.003-1.704-5.975-2.848-8.863c-1.131-2.856-2.467-5.65-4.2-8.193
			c-1.607-2.357-3.618-4.561-6.191-5.871c-0.834-0.424-1.699-0.938-2.607-1.148c-0.628-0.145-1.267-0.43-1.907-0.43
			c0.006,0,0.014,0,0.02,0c-0.459,0-0.929,0.233-1.385,0.282c-0.307,0.033-0.622,0.186-0.923,0.255
			c-0.939,0.214-1.846,0.563-2.709,0.994c-2.385,1.189-4.32,3.142-5.891,5.269c-1.851,2.505-3.277,5.326-4.498,8.184
			c-1.209,2.834-2.221,5.756-3.129,8.698c-0.663,2.146-1.266,4.315-1.826,6.49c-0.237-0.931-0.483-1.857-0.738-2.783
			c-0.829-3.01-1.748-5.997-2.833-8.925c-1.069-2.878-2.28-5.715-3.803-8.384c-1.521-2.667-3.374-5.221-5.819-7.114
			c-1.154-0.894-2.46-1.821-3.855-2.257c-1.041-0.325-2.096-0.708-3.18-0.708c0.004,0,0.007,0,0.012,0
			c-0.161,0-0.354,0.221-0.518,0.226c-0.2,0.006-0.4,0.132-0.602,0.149c-0.522,0.05-1.033,0.206-1.544,0.324
			c-1.399,0.324-2.734,1.046-3.889,1.887c-1.194,0.87-2.233,1.944-3.146,3.101c-1.939,2.454-3.334,5.322-4.474,8.218
			c-1.168,2.968-2.076,6.038-2.854,9.13c-0.614,2.447-1.135,4.917-1.598,7.396c-0.325-1.909-0.687-3.812-1.101-5.705
			c-0.684-3.133-1.486-6.247-2.522-9.283c-1.009-2.955-2.218-5.874-3.842-8.548c-1.552-2.557-3.528-4.922-6.069-6.545
			c-1.287-0.822-2.708-1.426-4.199-1.763c-0.68-0.154-1.367-0.244-2.063-0.289c-0.259-0.017-0.52,0.001-0.775-0.022
			c-1.535,0.037-3.03,0.289-4.471,0.828c-2.835,1.06-5.194,3.048-7.098,5.365c-1.978,2.406-3.5,5.157-4.788,7.982
			c-1.32,2.897-2.223,5.901-3.154,8.943C83.788,100.181,83,101.98,83,103.791c0-0.517,0-1.034,0-1.551c0-1.49,0-2.981,0-4.472
			c0-1.416,0-2.832,0-4.248c0-1.326,0-2.652,0-3.978c0-1.221,0-2.442,0-3.663c0-1.1,0-2.2,0-3.301c0-0.965,0-1.929,0-2.894
			c0-0.814,0-1.627,0-2.44c0-0.647,0-1.294,0-1.941c0-0.465,0-0.931,0-1.396c0-0.269,0-0.537,0-0.805
			c0-0.439-0.205-0.889-0.322-1.311c-0.332-1.188-1.409-2.118-2.615-2.372c-1.099-0.232-2.313,0.116-3.105,0.914
			c-0.195,0.195-0.384,0.419-0.556,0.634c-0.244,0.303-0.499,0.606-0.743,0.91c-0.322,0.398-0.665,0.781-1.003,1.165
			c-1.092,1.238-2.254,2.428-3.5,3.511c-0.645,0.561-1.308,1.09-1.983,1.61c-0.441,0.34-0.899,0.652-1.357,0.968
			c-0.469,0.324-0.956,0.613-1.438,0.915c-0.549,0.345-1.139,0.663-1.722,0.945c-0.838,0.405-1.678,0.797-2.549,1.126
			c-0.747,0.282-1.51,0.552-2.285,0.75c-1.093,0.279-2.188,0.518-3.306,0.678c-0.266,0.039-0.535,0.07-0.805,0.098
			c-6.988-2.018-11.263-9.171-9.619-16.351c0.062-0.268,0.132-0.529,0.211-0.786c-0.058,0.254-0.102,0.509-0.128,0.763
			c0.615-1.813,1.732-3.481,3.331-4.775c3.493-2.828,8.617-2.29,11.446,1.204c2.194,2.712,1.777,6.689-0.935,8.884
			c-2.106,1.704-5.106,1.446-6.81-0.656c-1.323-1.635-1.066-4.064,0.567-5.389c1.268-1.027,3.037-0.866,4.063,0.402
			c0.797,0.986,0.646,2.43-0.34,3.226c-0.763,0.62-1.678,0.577-2.34-0.169c0.673,0.831,1.892,0.959,2.723,0.285
			c1.071-0.866,1.237-2.437,0.37-3.507c-1.118-1.38-3.142-1.593-4.521-0.477c-1.777,1.439-2.05,4.046-0.611,5.823
			c1.853,2.29,5.211,2.643,7.5,0.789c2.95-2.387,3.406-6.712,1.017-9.662c-3.076-3.8-8.65-4.386-12.449-1.31
			c-0.147,0.119-0.29,0.247-0.431,0.379c2.524-2.661,6.349-3.957,10.181-3.077c4.482,1.026,7.28,5.489,6.253,9.971
			c1.37-4.896-1.928-9.729-6.801-10.846c-6.277-1.439-12.531,2.484-13.971,8.761c-1.547,6.751,1.721,13.482,7.547,16.599
			c-0.582-0.03-1.162-0.077-1.743-0.151c-1.198-0.153-2.415-0.387-3.556-0.792c-0.196-0.075-0.422-0.029-0.568,0.124
			c-0.198,0.206-0.191,0.544,0.017,0.741c0.13,0.124,0.325,0.196,0.484,0.276c0.165,0.083,0.331,0.161,0.498,0.237
			c0.422,0.192,0.851,0.361,1.283,0.527c0.673,0.26,1.37,0.467,2.065,0.656c0.668,0.183,1.348,0.344,2.031,0.46
			c0.563,0.096,1.125,0.18,1.691,0.253c1.525,0.198,3.074,0.216,4.607,0.145c1.757-0.081,3.518-0.343,5.226-0.758
			c1.356-0.33,2.679-0.749,3.988-1.23c1.139-0.419,2.232-0.955,3.325-1.477c0.512-0.245,1.117-0.543,1.616-0.813
			C73.956,81.368,75,80.714,76,80.064c0,0.44,0,0.88,0,1.32c0,1.049,0,2.097,0,3.146c0,1.175,0,2.351,0,3.526
			c0,1.286,0,2.572,0,3.859c0,1.382,0,2.765,0,4.146c0,1.463,0,2.926,0,4.389c0,1.528,0,3.057,0,4.585c0,1.579,0,3.157,0,4.734
			c0,1.613,0,3.226,0,4.839c0,1.632,0,3.265,0,4.897c0,1.637,0,3.273,0,4.91c0,1.625,0,3.25,0,4.875c0,1.599,0,3.198,0,4.797
			c0,1.557,0,3.113,0,4.671c0,1.5,0,2.999,0,4.499c0,1.427,0,2.855,0,4.282c0,1.34,0,2.679,0,4.019c0,1.236,0,2.473,0,3.71
			c0,1.117,0,2.236,0,3.354c0,0.984,0,1.969,0,2.953c0,0.836,0,1.671,0,2.507c0,0.672,0,1.343,0,2.014c0,0.025,0,0.051,0,0.075
			c0,0.335-0.115,0.672-0.114,1.007c0.001,0.361-0.053,0.428-0.052,0.791c0,0.107-0.075,0.031-0.075,0.031h0.011
			c0.002,0,0.019,0.854,0.078,1.135c0.225,1.067,0.97,2.137,1.966,2.584c1.024,0.459,2.242,0.454,3.199-0.133
			c0.941-0.577,1.562-1.556,1.638-2.657c0.039-0.568,0.105-1.117,0.159-1.684c0.108-1.134,0.221-2.259,0.333-3.393
			c0.248-2.482,0.511-4.958,0.787-7.437c0.362-3.24,0.742-6.477,1.153-9.711c0.41-3.228,0.844-6.45,1.313-9.67
			c0.469-3.218,0.972-6.432,1.52-9.637c0.546-3.194,1.137-6.381,1.795-9.554c0.656-3.16,1.37-6.308,2.184-9.432
			c0.795-3.054,1.675-6.091,2.734-9.065c1.038-2.913,2.204-5.806,3.771-8.479c0.757-1.291,1.612-2.557,2.674-3.618
			c0.326-0.326,0.674-0.613,1.045-0.884c0.284-0.208,0.607-0.378,0.938-0.497c0.179-0.065,0.361-0.107,0.55-0.133
			c0.073-0.009,0.145-0.012,0.217-0.015c-0.033-0.003-0.064,0.133-0.08,0.133c0.017,0,0.06,0.146,0.113,0.146
			c0.002,0,0.004,0,0.007,0c0.012,0,0.061-0.136,0.069-0.143c-0.004,0.004-0.01-0.064-0.018-0.063
			c0.12,0.008,0.261-0.017,0.298-0.02c-0.004-0.001-0.008-0.02-0.008-0.021c0.025-0.03,0.305,0.055,0.346,0.066
			c0.104,0.03,0.203,0.064,0.3,0.108c0.203,0.091,0.394,0.198,0.577,0.325c0.357,0.248,0.68,0.539,0.982,0.852
			c1.021,1.058,1.8,2.352,2.479,3.647c0.712,1.357,1.311,2.772,1.846,4.208c1.103,2.955,1.952,6.007,2.677,9.074
			c0.737,3.118,1.351,6.266,1.882,9.425c0.536,3.191,0.999,6.394,1.405,9.604c0.407,3.225,0.76,6.455,1.08,9.689
			c0.321,3.246,0.598,6.498,0.844,9.751c0.247,3.253,0.466,6.507,0.658,9.763c0.192,3.248,0.363,6.498,0.51,9.749
			c0.051,1.144,0.103,2.288,0.148,3.433c-0.001,0.343-0.005,0.686-0.006,1.029c-0.001,0.572,0.001,1.144,0.003,1.716
			c0.001,0.301-0.011,0.607,0.017,0.907c0.1,1.092,0.734,2.09,1.677,2.648c0.962,0.57,2.175,0.634,3.191,0.167
			c0.7-0.321,1.271-0.877,1.623-1.551c0.287-0.475,0.462-1.016,0.497-1.58c0.031-0.522,0.068-1.046,0.097-1.569
			c0.127-2.407,0.229-4.813,0.299-7.223c0.094-3.258,0.14-6.518,0.141-9.777c0.001-3.262-0.042-6.524-0.131-9.785
			c-0.015-0.502-0.031-1.003-0.046-1.505c0.098-1.819,0.206-3.638,0.332-5.455c0.216-3.156,0.476-6.308,0.79-9.455
			c0.319-3.179,0.691-6.353,1.147-9.515c0.459-3.175,1.001-6.34,1.662-9.479c0.652-3.097,1.419-6.177,2.414-9.183
			c0.963-2.909,2.119-5.839,3.846-8.389c0.817-1.208,1.791-2.381,3.046-3.156c0.546-0.338,1.148-0.569,1.783-0.674
			c0.25-0.041,0.497-0.033,0.749-0.054c-0.031,0.002-0.063-0.001-0.094,0.002c0.361-0.03,0.763,0.054,1.112,0.142
			c0.438,0.11,0.858,0.28,1.251,0.498c1.313,0.729,2.373,1.848,3.277,3.031c0.921,1.205,1.699,2.514,2.396,3.86
			c1.454,2.806,2.577,5.775,3.546,8.779c0.945,2.933,1.739,5.911,2.439,8.912c0.646,2.774,1.205,5.566,1.713,8.368
			c0.397,2.2,0.749,4.407,1.081,6.617c0.02,0.125,0.044,0.249,0.076,0.371c0.282,1.081,1.096,1.973,2.144,2.359
			c1.069,0.395,2.298,0.225,3.218-0.446c0.863-0.628,1.395-1.647,1.418-2.711c0.09-0.667,0.182-1.333,0.277-2
			c0.401-2.778,0.874-5.547,1.42-8.3s1.164-5.491,1.884-8.203c0.804-3.029,1.721-6.034,2.864-8.953
			c1.14-2.908,2.467-5.812,4.332-8.335c0.866-1.171,1.871-2.299,3.105-3.092c0.418-0.269,0.865-0.496,1.337-0.652
			c0.224-0.074,0.459-0.145,0.693-0.177c0.117-0.017,0.234-0.036,0.352-0.045c0.156-0.012,0.326,0.002,0.479-0.022
			c-0.043,0.006-0.088-0.007-0.131-0.002c0.168-0.019,0.364,0.021,0.531,0.03c0.184,0.011,0.36,0.079,0.54,0.12
			c0.308,0.071,0.608,0.218,0.885,0.366c0.415,0.221,0.805,0.493,1.163,0.796c1.096,0.928,1.983,2.095,2.743,3.306
			c0.802,1.281,1.481,2.632,2.085,4.017c1.253,2.872,2.188,5.876,2.945,8.914c0.741,2.972,1.316,5.983,1.761,9.013
			c0.457,3.118,0.775,6.256,0.979,9.401c0.21,3.237,0.301,6.483,0.268,9.726c-0.035,3.251-0.192,6.5-0.485,9.738
			c-0.28,3.071-0.68,6.131-1.225,9.166c-0.19,1.058-0.383,2.122-0.641,3.167c-0.485,1.967-1.046,3.91-1.741,5.816
			c-1.044,2.866-2.346,5.64-3.872,8.28c-1.531,2.647-3.279,5.175-5.202,7.552c-1.976,2.44-4.135,4.734-6.438,6.867
			c-2.27,2.102-4.676,4.062-7.216,5.829c-1.302,0.906-2.633,1.771-4.007,2.565c-0.662,0.383-1.334,0.752-2.02,1.088
			c-0.282,0.139-0.565,0.277-0.854,0.406c-0.264-0.163-0.521-0.336-0.774-0.508c-1.307-0.89-2.544-1.885-3.741-2.914
			c-1.199-1.03-2.358-2.106-3.48-3.221c-2.226-2.214-4.324-4.553-6.265-7.022c-1.06-1.349-2.073-2.736-3.029-4.162
			c1.05,0.619,2.199,1.125,3.438,1.492c5.495,1.629,11.27-1.504,12.899-6.999c1.116-3.763-1.029-7.719-4.794-8.835
			c-2.577-0.766-5.287,0.705-6.053,3.283c-0.021,0.073-0.039,0.146-0.057,0.22c-0.184-2.131-1.907-3.862-4.105-3.995
			c-1.878-0.113-3.581,1.282-3.605,3.194c0.104-1.726,1.589-3.04,3.314-2.937c2.225,0.135,3.918,2.046,3.783,4.271
			c-0.173,2.865-2.636,5.047-5.501,4.875c-0.691-0.043-1.351-0.189-1.966-0.421c0.116,0.021,0.232,0.035,0.347,0.043
			c1.772,0.107,3.296-1.242,3.403-3.015c0.084-1.375-0.964-2.559-2.34-2.642c-1.067-0.064-1.986,0.749-2.051,1.816
			c-0.05,0.829,0.581,1.542,1.41,1.591c0.644,0.04,1.197-0.45,1.235-1.094c0.03-0.499-0.35-0.929-0.85-0.959
			c-0.388-0.023-0.721,0.272-0.744,0.66c0.038-0.361,0.299-0.567,0.655-0.545c0.46,0.027,0.809,0.423,0.781,0.882
			c-0.036,0.591-0.524,1.012-1.116,0.977c-0.763-0.046-1.351-0.711-1.304-1.473c0.06-0.981,0.892-1.69,1.874-1.632
			c1.264,0.077,2.228,1.164,2.15,2.43c-0.099,1.629-1.499,2.869-3.129,2.771c-0.491-0.029-0.955-0.152-1.376-0.349
			c-0.695-1.436-1.315-2.907-1.838-4.415c-0.467-1.351-0.856-2.732-1.146-4.132c0.1-0.647,0.242-1.297,0.434-1.942
			c-0.195,0.583-0.352,1.166-0.472,1.749c-0.061-0.299-0.117-0.599-0.165-0.899c-0.025-0.159-0.031-0.33-0.125-0.467
			c-0.089-0.127-0.218-0.222-0.35-0.302c-0.597-0.367-1.315-0.544-1.989-0.705c-0.159-0.038-0.318-0.073-0.479-0.106
			c-0.068-0.014-0.16-0.053-0.231-0.037c-0.296,0.063-0.59,0.132-0.884,0.209c-0.354,0.095-0.693,0.232-1.029,0.373
			c-0.295,0.124-0.583,0.295-0.815,0.516c-0.118,0.112-0.219,0.259-0.259,0.419c-0.039,0.157-0.025,0.335-0.031,0.497
			c-0.016,0.37-0.018,0.741-0.02,1.112c-0.004,0.746,0.029,1.491,0.07,2.235c0.158,2.983,0.762,5.956,1.619,8.813
			c0.885,2.949,2.09,5.801,3.535,8.519c1.317,2.475,2.828,4.842,4.498,7.094c1.827,2.465,3.839,4.792,5.995,6.975
			c2.183,2.211,4.52,4.29,7.03,6.123c1.176,0.857,2.395,1.681,3.696,2.334c1.007,0.506,2.062,0.881,3.188,0.986
			c0.102-0.008,0.218,0.013,0.316,0.016c0.721,0.021,1.447-0.081,2.142-0.277c1.226-0.348,2.397-0.854,3.54-1.414
			c2.795-1.371,5.439-3.052,7.962-4.871c2.564-1.851,5.016-3.867,7.319-6.034c2.231-2.097,4.34-4.325,6.294-6.685
			c1.968-2.374,3.782-4.881,5.405-7.504c1.644-2.655,3.102-5.428,4.327-8.301c1.207-2.827,2.202-5.746,2.951-8.727
			c0.342-1.359,0.642-2.731,0.877-4.113c0.182-1.062,0.345-2.126,0.488-3.195c0.434-3.227,0.709-6.474,0.854-9.728
			C205.329,136.394,205.346,133.156,205.248,129.921z M151.558,162.248c0.176,1.256,1.061,2.357,2.356,2.741
			c1.209,0.358,2.481-0.331,2.84-1.54c0.246-0.829-0.227-1.701-1.056-1.945c-0.567-0.17-1.164,0.154-1.333,0.722
			c-0.114,0.389,0.107,0.798,0.496,0.913c0.267,0.079,0.546-0.073,0.625-0.34c-0.233,0.229-0.428,0.255-0.618,0.193
			c-0.368-0.12-0.448-0.493-0.352-0.781c0.148-0.438,0.613-0.616,1.07-0.535c0.812,0.144,1.154,1.003,0.919,1.793
			c-0.342,1.153-1.494,1.628-2.633,1.236c-1.469-0.504-2.404-2.02-1.904-3.704c0.729-2.459,3.146-3.747,5.429-3.12
			c3.609,0.99,5.636,4.838,4.571,8.426c-1.554,5.24-7.062,8.229-12.301,6.674c-1.328-0.395-2.559-0.961-3.671-1.672
			c0.878,0.262,1.863,0.132,2.667-0.44c1.072-0.766,1.322-2.255,0.557-3.328c-0.37-0.519-0.96-0.789-1.553-0.775
			C149.675,166.133,151.222,164.408,151.558,162.248z M145.633,167.014c0.438,0.027,0.869,0.002,1.286-0.068
			c-0.097,0.046-0.191,0.099-0.281,0.163c-0.646,0.461-0.796,1.358-0.335,2.005c0.357,0.501,1.054,0.618,1.556,0.261
			c0.39-0.278,0.479-0.819,0.202-1.209c-0.105-0.155-0.284-0.288-0.437-0.321c-0.3-0.066-0.542,0.117-0.599,0.376
			c-0.058,0.26,0.2,0.524,0.377,0.583c0.072,0.024,0.165,0.047,0.254,0.038c0.087,0.001,0.506,0.023,0.125,0.401
			c-0.015,0.013-0.029,0.025-0.045,0.036c-0.461,0.33-1.039,0.204-1.36-0.263c-0.435-0.631-0.256-1.402,0.338-1.826
			c0.766-0.547,1.729-0.361,2.274,0.404c0.704,0.986,0.475,2.355-0.512,3.059c-0.915,0.653-2.087,0.683-3.009,0.173
			c-0.489-0.763-0.962-1.537-1.412-2.322c-0.062-0.107-0.121-0.217-0.183-0.325c-0.002-0.03-0.007-0.06-0.009-0.091
			c-0.003,0.021-0.005,0.041-0.009,0.062c-0.351-0.623-0.688-1.254-1.012-1.893C143.681,166.685,144.623,166.953,145.633,167.014z"
			/>
		<g>
			<path fill="#FE8083" d="M199.521,54.878c-0.971-0.607-1.021-1.737-0.342-2.659c0.76-1.032,1.9-1.237,3.084-0.492
				c1.281,0.806,1.724,2.352,0.927,3.858c-1.144,2.164-3.409,2.814-5.605,1.647c2.082,1.55,5.001,1.031,6.413-1.227
				c1.096-1.752,0.563-4.062-1.188-5.158c-1.36-0.851-3.153-0.438-4.004,0.923C198.145,52.827,198.417,54.259,199.521,54.878z"/>
			<path fill="#FE8083" d="M202.698,58.787c-0.958,0.068-1.726,0.887-1.609,1.856c-0.063-0.88,0.599-1.645,1.479-1.707
				c0.746-0.053,1.426,0.3,1.828,0.87c-0.02-0.024-0.038-0.049-0.059-0.071c-0.63-0.695-1.704-0.748-2.398-0.118
				c-0.541,0.489-0.581,1.323-0.093,1.862c0.38,0.419,1.027,0.451,1.446,0.071c0.324-0.294,0.35-0.796,0.055-1.122
				c-0.229-0.252-0.619-0.272-0.871-0.043c-0.196,0.178-0.211,0.48-0.033,0.676c0.137,0.152,0.372,0.164,0.525,0.026
				c-0.147,0.122-0.322,0.104-0.45-0.036c-0.163-0.181-0.149-0.458,0.031-0.622c0.232-0.21,0.572-0.188,0.782,0.043
				c0.271,0.299,0.248,0.768-0.051,1.039c-0.385,0.349-0.962,0.31-1.311-0.076c-0.449-0.496-0.411-1.263,0.085-1.712
				c0.64-0.579,1.626-0.53,2.205,0.109c0.265,0.292,0.429,0.641,0.491,1.003c0.002-0.042,0.001-0.084-0.002-0.127
				c0.007,0.044,0.014,0.088,0.017,0.134c0.104,1.461-0.995,2.729-2.454,2.833c-0.805,0.058-1.564-0.169-2.18-0.595
				c0.987,0.21,1.64-1.441-0.05-1.692c1.047,0.427,0.253,2.148-1.068,0.3c-0.289-1.798-1.174-3.371-2.431-4.512
				c7.619,5.15,12.065-3.349,7.595-5.768c3.907,3.092-0.657,10.159-7.915,5.492c-0.483-0.394-1.016-0.726-1.584-0.987
				c0.278,0.034,0.559,0.028,0.821-0.022c1.491-0.291,2.465-1.735,2.174-3.227c-0.226-1.158-1.348-1.914-2.505-1.688
				c-0.899,0.175-1.485,1.046-1.311,1.944c0.136,0.698,0.813,1.153,1.51,1.017c0.542-0.105,0.895-0.63,0.79-1.172
				c-0.083-0.42-0.49-0.694-0.91-0.613c-0.167,0.028-0.34,0.125-0.424,0.237c-0.166,0.219-0.104,0.484,0.084,0.627
				c0.189,0.143,0.501,0.032,0.614-0.091c0.047-0.05,0.101-0.118,0.126-0.193c0.032-0.07,0.207-0.403,0.374,0.047
				c0.005,0.017,0.01,0.033,0.013,0.05c0.098,0.498-0.22,0.922-0.719,1.011c-0.676,0.121-1.238-0.312-1.363-0.953
				c-0.161-0.826,0.347-1.542,1.173-1.703c1.064-0.207,2.097,0.487,2.303,1.552c0.268,1.371-0.627,2.7-1.998,2.967
				c-0.435,0.084-0.865,0.077-1.273-0.006c-0.48-0.178-0.982-0.307-1.5-0.381c-1.671-3.428-5.188-5.792-9.26-5.792
				c-4.069,0-7.587,2.363-9.258,5.792c-0.519,0.074-1.02,0.203-1.5,0.381c-0.408,0.083-0.84,0.091-1.273,0.006
				c-1.372-0.267-2.267-1.596-2-2.967c0.208-1.064,1.238-1.759,2.305-1.552c0.825,0.161,1.333,0.877,1.172,1.703
				c-0.125,0.642-0.687,1.074-1.362,0.953c-0.499-0.089-0.816-0.513-0.72-1.011c0.003-0.017,0.009-0.034,0.013-0.05
				c0.168-0.45,0.342-0.118,0.374-0.047c0.026,0.075,0.08,0.143,0.127,0.193c0.112,0.123,0.424,0.234,0.613,0.091
				c0.189-0.143,0.25-0.408,0.085-0.627c-0.085-0.112-0.258-0.209-0.424-0.237c-0.421-0.082-0.828,0.193-0.91,0.613
				c-0.105,0.542,0.248,1.066,0.79,1.172c0.697,0.136,1.373-0.319,1.509-1.017c0.176-0.898-0.411-1.769-1.31-1.944
				c-1.158-0.226-2.279,0.53-2.505,1.688c-0.291,1.492,0.683,2.936,2.174,3.227c0.261,0.051,0.543,0.056,0.82,0.022
				c-0.567,0.262-1.1,0.594-1.584,0.987c-7.257,4.667-11.821-2.4-7.914-5.492c-4.471,2.419-0.024,10.918,7.595,5.768
				c-1.257,1.141-2.142,2.714-2.431,4.512c-1.321,1.848-2.116,0.126-1.068-0.3c-1.689,0.251-1.037,1.903-0.05,1.692
				c-0.616,0.425-1.375,0.653-2.18,0.595c-1.459-0.104-2.559-1.372-2.455-2.833c0.003-0.045,0.011-0.089,0.018-0.134
				c-0.004,0.043-0.005,0.085-0.003,0.127c0.063-0.362,0.227-0.711,0.491-1.003c0.58-0.639,1.566-0.688,2.206-0.109
				c0.496,0.45,0.534,1.217,0.085,1.712c-0.35,0.386-0.926,0.425-1.311,0.076c-0.299-0.271-0.322-0.739-0.052-1.039
				c0.211-0.232,0.55-0.253,0.782-0.043c0.181,0.164,0.194,0.441,0.031,0.622c-0.127,0.14-0.302,0.158-0.449,0.036
				c0.152,0.138,0.388,0.126,0.525-0.026c0.178-0.195,0.162-0.498-0.034-0.676c-0.252-0.229-0.643-0.209-0.87,0.043
				c-0.295,0.325-0.271,0.828,0.055,1.122c0.419,0.38,1.065,0.349,1.445-0.071c0.489-0.54,0.448-1.374-0.092-1.862
				c-0.695-0.63-1.769-0.577-2.398,0.118c-0.021,0.022-0.039,0.047-0.059,0.071c0.402-0.57,1.081-0.923,1.828-0.87
				c0.88,0.063,1.541,0.827,1.479,1.707c0.115-0.969-0.652-1.788-1.608-1.856c-1.232-0.088-2.304,0.84-2.392,2.073
				c-0.113,1.588,1.082,2.967,2.671,3.08c1.436,0.103,2.714-0.643,3.344-1.788c-0.02,0.182-0.033,0.365-0.039,0.55
				c-0.038,1.169,0.244,2.273,0.768,3.23c-0.09-0.07-0.181-0.145-0.275-0.227c0.169,0.223,0.334,0.421,0.494,0.599
				c1.086,1.698,2.961,2.851,5.127,2.921c1.29,0.042,2.479-0.419,3.383-1.206c1.728,1.312,3.882,2.092,6.218,2.092
				c2.338,0,4.491-0.78,6.22-2.092c0.901,0.787,2.091,1.248,3.383,1.206c2.166-0.071,4.041-1.223,5.126-2.921
				c0.161-0.177,0.325-0.375,0.494-0.599c-0.095,0.082-0.186,0.156-0.275,0.227c0.523-0.957,0.806-2.062,0.769-3.23
				c-0.006-0.186-0.021-0.368-0.039-0.55c0.629,1.145,1.908,1.891,3.344,1.788c1.589-0.113,2.783-1.492,2.671-3.08
				C205.002,59.627,203.931,58.699,202.698,58.787z M170.558,57.536c0.101-0.168,0.218-0.32,0.348-0.455
				c0.185-0.158,0.376-0.307,0.575-0.447c0.032-0.019,0.064-0.037,0.098-0.054c-0.011,0.002-0.022,0.007-0.034,0.01
				c0.754-0.516,1.605-0.897,2.52-1.111c-0.404,0.869-0.693,1.802-0.842,2.783c-0.074-0.075-0.157-0.142-0.252-0.198
				c-0.472-0.281-1.082-0.126-1.363,0.346c-0.218,0.366-0.099,0.84,0.269,1.058c0.284,0.169,0.652,0.076,0.82-0.208
				c0.133-0.221,0.061-0.506-0.16-0.638c0.199,0.132,0.241,0.348,0.121,0.551c-0.156,0.261-0.495,0.347-0.756,0.191
				c-0.337-0.201-0.436-0.616-0.235-0.952c0.259-0.435,0.828-0.579,1.262-0.32c0.111,0.066,0.207,0.148,0.286,0.241
				c-0.07,0.484-0.108,0.979-0.108,1.483c0,0.048,0.003,0.096,0.003,0.144c-0.477,0.5-1.252,0.624-1.872,0.255
				C170.309,59.664,170.005,58.464,170.558,57.536z M173.496,62.627c-0.032,0.012-0.063,0.024-0.096,0.039
				c0.033-0.013,0.064-0.024,0.098-0.035c0.198,0.701,0.469,1.372,0.804,2.003c-0.093,0.083-0.197,0.152-0.313,0.207
				c-0.822,0.379-1.741,0.027-2.121-0.794c-0.489-1.057-0.021-2.329,1.035-2.817c0.096-0.044,0.19-0.081,0.287-0.113
				C173.254,61.633,173.358,62.137,173.496,62.627z M168.288,62.528c0.062-1.908,0.834-3.625,2.053-4.91
				c-0.494,0.987-0.151,2.202,0.813,2.776c0.641,0.382,1.438,0.278,1.961-0.204c0.01,0.273,0.029,0.543,0.061,0.811
				c-0.09,0.031-0.181,0.068-0.27,0.108c-1.149,0.532-1.65,1.896-1.118,3.046c0.412,0.893,1.472,1.282,2.364,0.869
				c0.1-0.046,0.189-0.103,0.272-0.168c0.351,0.625,0.766,1.208,1.234,1.743c-0.265,0.246-0.571,0.455-0.916,0.615
				c-1.105,0.512-2.312,0.536-3.378,0.164c0.984-0.58,0.829-2.522-1.307-2.131c1.227,0.071,1.367,1.634,0.219,1.578
				c-0.629-0.436-1.154-1.037-1.505-1.778C168.435,64.278,168.259,63.423,168.288,62.528z M173.909,68.526
				c-1.002-0.033-1.936-0.317-2.743-0.79c1.191,0.455,2.558,0.448,3.807-0.13c0.375-0.174,0.708-0.401,0.995-0.669
				c0.241,0.251,0.493,0.489,0.759,0.715C175.939,68.23,174.961,68.56,173.909,68.526z M198.511,62.528
				c0.028,0.896-0.146,1.75-0.483,2.519c-0.351,0.741-0.876,1.342-1.506,1.778c-1.148,0.056-1.008-1.507,0.22-1.578
				c-2.136-0.391-2.292,1.551-1.307,2.131c-1.066,0.373-2.272,0.348-3.378-0.164c-0.346-0.16-0.652-0.37-0.916-0.615
				c0.468-0.535,0.883-1.119,1.234-1.743c0.083,0.065,0.173,0.123,0.272,0.168c0.892,0.413,1.951,0.024,2.364-0.869
				c0.531-1.15,0.031-2.514-1.119-3.046c-0.088-0.041-0.179-0.077-0.269-0.108c0.03-0.268,0.05-0.538,0.06-0.811
				c0.523,0.481,1.32,0.586,1.962,0.204c0.964-0.574,1.307-1.789,0.813-2.776C197.676,58.902,198.449,60.62,198.511,62.528z
				 M195.318,56.634c0.199,0.14,0.391,0.289,0.574,0.447c0.131,0.135,0.248,0.287,0.348,0.455c0.554,0.928,0.25,2.127-0.678,2.68
				c-0.619,0.368-1.395,0.244-1.873-0.255c0.002-0.048,0.004-0.096,0.004-0.144c0-0.504-0.037-0.999-0.107-1.483
				c0.079-0.092,0.174-0.174,0.286-0.241c0.434-0.259,1.003-0.115,1.261,0.32c0.2,0.336,0.102,0.751-0.234,0.952
				c-0.262,0.156-0.6,0.07-0.756-0.191c-0.121-0.203-0.078-0.419,0.121-0.551c-0.221,0.131-0.293,0.417-0.161,0.638
				c0.169,0.284,0.537,0.377,0.821,0.208c0.366-0.218,0.485-0.692,0.269-1.058c-0.282-0.472-0.892-0.626-1.363-0.346
				c-0.095,0.057-0.179,0.124-0.253,0.198c-0.148-0.98-0.437-1.914-0.841-2.783c0.914,0.213,1.765,0.595,2.519,1.111
				c-0.012-0.003-0.022-0.008-0.034-0.01C195.254,56.597,195.285,56.616,195.318,56.634z M193.301,62.631
				c0.032,0.011,0.064,0.021,0.097,0.035c-0.032-0.015-0.063-0.027-0.096-0.039c0.139-0.49,0.242-0.994,0.308-1.511
				c0.096,0.032,0.191,0.069,0.286,0.113c1.058,0.489,1.524,1.761,1.036,2.817c-0.381,0.821-1.3,1.174-2.121,0.794
				c-0.117-0.055-0.223-0.125-0.313-0.207C192.832,64.002,193.103,63.332,193.301,62.631z M192.89,68.526
				c-1.052,0.034-2.03-0.296-2.817-0.874c0.265-0.226,0.518-0.464,0.757-0.715c0.288,0.268,0.622,0.495,0.997,0.669
				c1.249,0.578,2.615,0.585,3.807,0.13C194.825,68.209,193.892,68.494,192.89,68.526z"/>
			<path fill="#FE8083" d="M162.802,56.006c1.411,2.258,4.331,2.776,6.413,1.227c-2.196,1.167-4.463,0.517-5.607-1.647
				c-0.796-1.506-0.353-3.052,0.928-3.858c1.184-0.745,2.324-0.54,3.085,0.492c0.679,0.922,0.628,2.052-0.343,2.659
				c1.104-0.62,1.377-2.051,0.717-3.107c-0.852-1.361-2.645-1.773-4.005-0.923C162.237,51.944,161.705,54.253,162.802,56.006z"/>
		</g>
	</g>
</g>
</svg>
